<svg width="157" height="53" viewBox="0 0 157 53" fill="none" xmlns="http://www.w3.org/2000/svg">
<path d="M2.79782 38.5039V19.1573H13.4236V20.5859H5.05989V28.2948H12.2628V29.664H5.05989V38.5039H2.79782ZM23.5097 38.8015C21.7833 38.8015 20.2951 38.4047 19.0451 37.611C17.8148 36.8173 16.8723 35.6763 16.2175 34.1881C15.5627 32.6801 15.2353 30.9041 15.2353 28.8603C15.2353 26.8165 15.5627 25.0505 16.2175 23.5623C16.8723 22.0543 17.8148 20.9034 19.0451 20.1097C20.2951 19.2962 21.7833 18.8894 23.5097 18.8894C25.236 18.8894 26.7242 19.2962 27.9743 20.1097C29.2244 20.9034 30.1768 22.0543 30.8316 23.5623C31.5063 25.0505 31.8436 26.8165 31.8436 28.8603C31.8436 30.9041 31.5063 32.6801 30.8316 34.1881C30.1768 35.6763 29.2244 36.8173 27.9743 37.611C26.7242 38.4047 25.236 38.8015 23.5097 38.8015ZM23.5097 37.3729C25.4146 37.3729 26.873 36.6486 27.885 35.2001C28.9168 33.7516 29.4327 31.6383 29.4327 28.8603C29.4327 26.1022 28.9168 23.989 27.885 22.5206C26.873 21.0522 25.4146 20.3181 23.5097 20.3181C21.6246 20.3181 20.1761 21.0522 19.1641 22.5206C18.1521 23.989 17.6461 26.1022 17.6461 28.8603C17.6461 31.6383 18.1422 33.7516 19.1343 35.2001C20.1463 36.6486 21.6048 37.3729 23.5097 37.3729ZM36.0789 19.1573H40.7519C42.7163 19.1573 44.2541 19.6732 45.3653 20.705C46.4765 21.717 47.0321 23.1754 47.0321 25.0803C47.0321 26.6082 46.7047 27.8583 46.0499 28.8306C45.3951 29.8029 44.5319 30.4974 43.4604 30.9141L48.312 38.5039H45.7225L41.2876 31.3308H38.341V38.5039H36.0789V19.1573ZM40.7519 29.9914C42.0417 29.9914 43.014 29.6243 43.6688 28.8901C44.3236 28.1559 44.651 26.9158 44.651 25.1696C44.651 22.0345 43.262 20.4669 40.484 20.4669H38.341V29.9914H40.7519Z" fill="#2F3538"/>
<path d="M85.0029 38.5039V19.1573H95.4203V20.5859H87.265V28.027H94.7358V29.3961H87.265V37.0752H96.0751V38.5039H85.0029ZM103.005 38.5039V20.5859H97.4989V19.1573H110.803V20.5859H105.267V38.5039H103.005ZM116.725 38.5039V20.5859H111.218V19.1573H124.523V20.5859H118.987V38.5039H116.725ZM127.527 38.5039V19.1573H137.945V20.5859H129.789V28.027H137.26V29.3961H129.789V37.0752H138.599V38.5039H127.527ZM142.613 19.1573H147.286C149.25 19.1573 150.788 19.6732 151.899 20.705C153.01 21.717 153.566 23.1754 153.566 25.0803C153.566 26.6082 153.238 27.8583 152.584 28.8306C151.929 29.8029 151.066 30.4974 149.994 30.9141L154.846 38.5039H152.256L147.821 31.3308H144.875V38.5039H142.613V19.1573ZM147.286 29.9914C148.575 29.9914 149.548 29.6243 150.202 28.8901C150.857 28.1559 151.185 26.9158 151.185 25.1696C151.185 22.0345 149.796 20.4669 147.018 20.4669H144.875V29.9914H147.286Z" fill="#2F3538"/>
<path d="M66.7894 5.62799L70.1271 5.68125L70.1123 6.63987C70.1112 7.94408 70.1324 9.25208 70.1278 10.5786C70.1075 11.0671 70.2842 11.1773 70.7512 11.2568C72.1348 11.4233 73.5038 11.7022 74.8447 12.0909C76.3871 12.5221 77.7234 13.5066 78.5986 14.8564C79.4738 16.2063 79.8266 17.8269 79.5896 19.4091C79.5554 20.0569 79.4763 20.701 79.3527 21.3368C79.1885 22.1126 78.848 22.838 78.3578 23.457C77.8676 24.076 77.2408 24.5718 76.5259 24.9061L75.4121 25.4488C75.9692 25.6809 76.4537 25.8664 76.9183 26.1056C78.1713 26.6733 79.232 27.5998 79.966 28.7678C80.7 29.9357 81.0741 31.2924 81.041 32.6657C81.1307 34.0304 80.9416 35.3961 80.4851 36.6788C80.1683 37.5254 79.6838 38.2973 79.0607 38.9481C78.4375 39.599 77.6886 40.1155 76.8586 40.4667C74.9167 41.2553 72.8362 41.6551 70.7334 41.6438C70.23 41.6497 70.0402 41.7661 70.0573 42.3068C70.082 43.5925 69.9663 44.9001 70.0203 46.145C70.0247 46.4776 69.9297 46.6445 69.6112 46.636L66.7511 46.5954L66.7568 45.4064L66.7595 42.1459C66.7715 41.7818 66.6756 41.5938 66.2741 41.6056C65.8725 41.6173 65.0284 41.6109 64.3212 41.605L64.3148 46.5469L60.9432 46.4192L60.946 41.4996L52.6842 41.3862L52.6946 35.77L55.1344 35.7962L55.1748 16.5118L52.7572 16.4893L52.7641 10.8953L60.957 10.9398L60.9521 5.49253L64.2583 5.52898L64.2351 10.9371L66.6749 10.9634L66.7894 5.62799ZM66.2498 28.3516C65.6925 28.3368 65.154 28.3481 64.6002 28.3111C64.0465 28.274 64.1236 28.4359 64.1245 28.7908C64.125 31.022 64.1255 33.2533 64.1038 35.4808C64.0941 35.9025 64.2708 36.0127 64.6595 36.0102C65.6218 35.991 66.6123 36.0108 67.5453 36.0323C68.4314 36.074 69.2973 35.7816 69.9728 35.2127C70.6483 34.6438 71.0846 33.8395 71.1959 32.9579C71.3406 32.3964 71.3502 31.807 71.2237 31.2382C71.0973 30.6693 70.8384 30.1372 70.4686 29.6855C70.0987 29.2339 69.6283 28.8757 69.0959 28.6402C68.5636 28.4047 67.9846 28.2988 67.4065 28.3311L66.2498 28.3516ZM64.1374 20.1313C64.1355 21.0807 64.1839 22.0729 64.1316 22.9794C64.1173 23.2859 64.2167 23.4516 64.5609 23.4415C65.5677 23.4298 66.5417 23.4812 67.5592 23.4027C68.0678 23.397 68.5563 23.2117 68.9389 22.8793C69.3215 22.5469 69.5739 22.0886 69.6517 21.5848C69.7836 20.9071 69.8243 20.2136 69.7727 19.523C69.7562 19.1557 69.6673 18.7945 69.5111 18.4603C69.355 18.1261 69.1348 17.8256 68.8631 17.5761C68.5915 17.3267 68.2738 17.1332 67.9286 17.0069C67.5833 16.8806 67.2173 16.824 66.8516 16.8403C66.1 16.8268 65.3542 16.8486 64.6061 16.8128C64.2432 16.7968 64.1201 16.9246 64.1339 17.2702C64.2022 18.2087 64.1909 19.145 64.2148 20.0759L64.1374 20.1313Z" fill="white"/>
</svg>
